<svg xmlns="http://www.w3.org/2000/svg" viewBox="0 0 12.4 15"><path fill="#d73232" d="m11.7 9.2-.5-.5c-.1-.1-.2-.3-.2-.5V6.1c0-1.8-1.1-3.3-2.7-3.9v-.1C8.3 1 7.4 0 6.2 0S4.1 1 4.1 2.1v.1c-1.6.7-2.7 2.2-2.7 3.9v2.1c0 .2-.1.4-.2.5l-.5.5c-.5.5-.7 1-.7 1.6C0 12 1 13 2.2 13h1.6c.2 1.1 1.2 2 2.4 2s2.2-.9 2.4-2h1.6c1.2 0 2.2-1 2.2-2.2 0-.6-.3-1.1-.7-1.6zM6.2 1.5c.3 0 .5.2.6.5H5.6c.1-.3.3-.5.6-.5zm0 12c-.4 0-.7-.2-.8-.5H7c-.2.3-.5.5-.8.5zm4-2h-8c-.4 0-.7-.3-.7-.7 0-.2.1-.4.2-.5l.5-.5c.4-.4.7-1 .7-1.6V6.1c0-1.5 1.2-2.6 2.6-2.6h1.4c1.5 0 2.6 1.2 2.6 2.6v2.1c0 .6.2 1.2.7 1.6l.5.5c.1.1.2.3.2.5 0 .4-.3.7-.7.7z"/></svg>